<svg id="Capa_1" enable-background="new 0 0 512.008 512.008" height="512" viewBox="0 0 512.008 512.008" width="512" xmlns="http://www.w3.org/2000/svg"><g><g><path d="m242.032 70.102h-44.361l-2.777 1.535 6.554 32.223 1.751 1.575h33.666l1.266-1.575 6.553-32.223z" fill="#7b6c79"/><path d="m123.53 159.357-6.156-.422-17.795 7.063 33.255 64.626 8.948.353 13.205 16.042h8.795l1.067-1.93z" fill="#7b6c79"/><path d="m104.132 164.191-18.85 7.481-3.004 7.566 26.6 55.19 2.487.757 8.25-5.083 16.599.655z" fill="#665e68"/><path d="m360.615 105.935h-35.175v142.762c15.527.012 34.842.072 34.842.072l4.393-3.68v-136.692z" fill="#b5dcff"/><g fill="#8bcaff"><path d="m328.922 245.089v-136.757l3.193-2.397h-27l-3.193 2.397v136.757s4.526 3.846 4.36 3.68c-.083-.083 13.404-.083 26.919-.062-.575-.471-4.279-3.618-4.279-3.618z"/><path d="m336.919 248.712c12.185.022 23.363.056 23.363.056l.074-.062c-9.25-.014-18.507-.019-23.437.006z"/></g><path d="m226.281 12.315c-1.953-6.411-11.03-6.411-12.983 0l-18.403 59.322h49.79z" fill="#938493"/><path d="m201.448 103.86v141.229l3.126 2.721h31.75l1.807-2.721v-141.229z" fill="#dbedff"/><path d="m87.898 143.296 13.703 26.63 21.929-10.569-12.381-25.688-4.075-1.984-18.158 9.144z" fill="#ff7f87"/><path d="m92.099 139.226-20.275 10.209-1.926 4.116 12.38 25.687 23.619-11.383z" fill="#ff636e"/><path d="m494.768 305.855v-30.62c0-16.649-13.497-30.146-30.146-30.146h-372.409l-9.935 5.846-13.595 13.333v226.5l8.266 6.667 13.763 7.073h373.911c16.649 0 30.146-13.497 30.146-30.146v-125.826l-3.82-3.767v-33.667z" fill="#ff7f87"/><path d="m72.099 474.362v-125.826l4.994-4.934v-32.667l-4.994-5.08v-30.62c0-16.649 13.497-30.146 30.146-30.146h-36.978c-16.649 0-30.146 13.497-30.146 30.146v30.62l4.994 5.08v32.667l-4.994 4.934v125.826c0 16.649 13.497 30.146 30.146 30.146h36.978c-16.649 0-30.146-13.497-30.146-30.146z" fill="#ff636e"/><path d="m68.683 305.855h426.085v42.681h-426.085z" fill="#7b6c79"/><path d="m35.121 305.855h36.978v42.681h-36.978z" fill="#665e68"/><path d="m142.46 229.174h-2.852c-2.621 1.259-4.659 2.261-4.659 2.261l-4.195 6v121.912l7.467 7.274h4.24c6.89 0 12.528-5.637 12.528-12.528v-112.391c-.002-6.89-5.639-12.528-12.529-12.528z" fill="#ffd086"/><path d="m133.853 354.093v-112.391c0-6.222 4.602-11.407 10.567-12.357-.641-.102-1.292-.17-1.96-.17h-23.413c-6.89 0-12.528 5.637-12.528 12.528v112.392c0 6.89 5.637 12.528 12.528 12.528h23.413c.668 0 1.32-.068 1.96-.17-5.965-.952-10.567-6.138-10.567-12.36z" fill="#ffc365"/><path d="m410.843 229.174h-3.071c-2.388 1.603-4.323 2.928-4.323 2.928l-4.312 7v120.333l4.812 4 6.725 3.185h.169c6.89 0 12.527-5.637 12.527-12.528v-112.39c0-6.89-5.638-12.528-12.527-12.528z" fill="#ffd086"/><path d="m402.235 354.093v-112.391c0-6.222 4.602-11.407 10.567-12.357-.641-.102-1.292-.17-1.96-.17h-23.412c-6.89 0-12.527 5.637-12.527 12.528v112.392c0 6.89 5.637 12.528 12.527 12.528h23.413c.668 0 1.32-.068 1.96-.17-5.966-.952-10.568-6.138-10.568-12.36z" fill="#ffc365"/><path d="m142.429 104.965-15.702-32.58c-2.944-6.108-10.282-8.673-16.39-5.729l-43.654 21.04-5.568 6.573v48.833l2.333 6.333 8.683 3.039 64.568-31.12c6.109-2.943 8.674-10.281 5.73-16.389z" fill="#dbedff"/><path d="m64.438 138.788.465-44.534c.025-2.348.661-4.595 1.78-6.559l-42.064 20.273c-4.205 2.027-6.897 6.263-6.946 10.931l-.422 40.352c-.095 9.104 9.405 15.14 17.606 11.188l38.759-18.681c-5.223-1.798-9.244-6.73-9.178-12.97z" fill="#b5dcff"/><path d="m371.74 8.913c-4.091-3.33-10.223-.368-10.223 4.907v47.794c0 3.175-1.694 6.108-4.443 7.696l-19.333 11.162c-2.749 1.587-6.137 1.587-8.886 0l-17.465-10.084-2.942 5.048 17.35 28.425 15 8.825 9.555 1.995c25.35-7.377 43.875-30.779 43.875-58.51.001-19.072-8.767-36.089-22.488-47.258z" fill="#dbedff"/><g><path d="m311.39 70.388-1.868-1.079c-2.75-1.587-4.443-4.521-4.443-7.696v-47.79c0-5.294-6.153-8.228-10.256-4.883-14.205 11.58-23.092 29.431-22.42 49.339 1.083 32.061 27.32 58.03 59.39 58.804 7.06.17 13.848-.878 20.191-2.92-20.018-6.488-35.612-23.123-40.594-43.775z" fill="#b5dcff"/></g></g><g><path d="m464.616 237.589h-34.18c-1.903-9.076-9.966-15.915-19.599-15.915h-23.413c-6.108 0-11.578 2.757-15.255 7.083v-30.162c0-4.142-3.357-7.5-7.5-7.5s-7.5 3.358-7.5 7.5v38.995h-16.376v-86.793c0-4.142-3.357-7.5-7.5-7.5s-7.5 3.358-7.5 7.5v86.793h-16.376v-117.28c7.552 2.814 15.994 4.381 24.779 4.271 7.671-.104 15.437-1.454 22.973-4.255v43.27c0 4.142 3.357 7.5 7.5 7.5s7.5-3.358 7.5-7.5v-51.11c18.173-12.609 29.555-33.128 29.555-56.315 0-20.664-9.204-40.008-25.253-53.074h-.001c-4.148-3.377-9.734-4.044-14.573-1.744-4.863 2.312-7.885 7.089-7.885 12.467v47.793c0 .494-.266.954-.692 1.201l-19.333 11.162c-.428.246-.959.247-1.387 0l-19.333-11.162c-.427-.247-.692-.707-.692-1.201v-47.79c0-5.377-3.019-10.151-7.879-12.459-4.853-2.304-10.453-1.63-14.616 1.763-16.728 13.637-25.904 33.831-25.177 55.405.755 22.382 12.273 42.014 29.515 53.942v125.115h-48.792v-132.974l6.403-31.484c.228-1.125.18-2.54-.187-3.717l-18.398-59.306c-1.851-6.043-7.337-10.102-13.659-10.102-6.33 0-11.822 4.068-13.655 10.086l-18.403 59.322c-.366 1.176-.414 2.591-.187 3.717l6.403 31.484v132.974h-24.388c-4.69-9.73-43.997-91.288-48.398-100.42l18.794-9.058c9.849-4.747 13.977-16.555 9.229-26.402l-15.702-32.581c-4.735-9.823-16.581-13.962-26.401-9.229l-85.72 41.313c-6.821 3.289-11.108 10.036-11.188 17.609l-.422 40.352c-.154 14.676 15.16 24.384 28.362 18.022l28.284-13.632c3.313 6.874 29.903 62.044 34.072 70.693-.43 1.07-.781 2.181-1.022 3.333h-34.18c-20.758 0-37.646 16.888-37.646 37.646v199.127c0 20.758 16.888 37.646 37.646 37.646h399.354c20.759 0 37.646-16.888 37.646-37.646 0-11.177 0-192.01 0-199.127 0-20.758-16.888-37.646-37.647-37.646zm-184.721-179.563c-.54-15.977 5.876-30.985 17.68-41.577v45.164c0 5.835 3.139 11.273 8.192 14.191l19.334 11.163c5.054 2.917 11.334 2.917 16.386 0l19.333-11.162c5.054-2.918 8.192-8.355 8.192-14.191v-45.164c11.288 10.142 17.712 24.473 17.712 39.721 0 30.162-24.788 54.126-54.816 53.411-27.945-.705-51.054-23.134-52.013-51.556zm207.368 217.209v23.12h-56.398v-45.766h33.752c12.487 0 22.646 10.159 22.646 22.646zm0 65.801h-56.398v-27.681h56.398zm-104.866-99.334c0-2.725 2.302-5.027 5.027-5.027h23.413c2.725 0 5.027 2.302 5.027 5.027v112.392c0 2.725-2.302 5.028-5.027 5.028h-23.413c-2.725 0-5.027-2.303-5.027-5.028 0-22.976 0-89.262 0-112.392zm-15 10.887v45.766h-204.914v-45.766zm-224.943 106.532c-25.034 0-23.64.058-24.411-.104-2.267-.478-4.03-2.539-4.03-4.924 0-12.843 0-99.28 0-112.392 0-2.751 2.356-5.027 5.028-5.027h23.412c2.726 0 5.028 2.302 5.028 5.027v112.392c.002 2.725-2.301 5.028-5.027 5.028zm61.614-279.984h31.432l-3.503 17.224h-24.427zm15.715-62.435 14.716 47.435h-29.431zm-10.84 94.658h21.683v126.229h-21.683zm-66.489 110.314h-23.412c-2.485 0-5.05.506-7.315 1.401l-19.441-40.337 27.738-13.369 25.308 52.511c-.62-.089-1.933-.206-2.878-.206zm-34.81-77.992 5.868 12.175-27.739 13.369-5.868-12.175zm-76.047 20.001c-3.194 1.536-6.888-.81-6.851-4.353l.422-40.352c.019-1.83 1.054-3.459 2.701-4.253l85.72-41.313c2.374-1.144 5.233-.142 6.377 2.229l15.702 32.581c1.146 2.379.149 5.23-2.229 6.376zm33.665 88.906h33.752v45.766h-56.398v-23.12c0-12.487 10.16-22.646 22.646-22.646zm33.752 88.447h-56.398v-27.681h56.397v27.681zm365.602 155.972h-399.354c-12.486 0-22.646-10.159-22.646-22.646v-118.326h56.496c.98 10.135 9.542 18.085 19.93 18.085h23.412c10.388 0 18.949-7.95 19.93-18.085h76.12c4.143 0 7.5-3.358 7.5-7.5s-3.357-7.5-7.5-7.5h-76.021v-27.681h204.914v27.681h-93.893c-4.143 0-7.5 3.358-7.5 7.5s3.357 7.5 7.5 7.5h93.991c.981 10.135 9.542 18.085 19.929 18.085h23.413c10.387 0 18.948-7.951 19.929-18.085h56.497v118.327c0 12.487-10.159 22.645-22.647 22.645z"/></g></g></svg>