<?xml version="1.0" encoding="iso-8859-1"?>
<!-- Generator: Adobe Illustrator 19.0.0, SVG Export Plug-In . SVG Version: 6.00 Build 0)  -->
<svg version="1.1" id="Capa_1" xmlns="http://www.w3.org/2000/svg" xmlns:xlink="http://www.w3.org/1999/xlink" x="0px" y="0px"
	 viewBox="0 0 464 464" style="enable-background:new 0 0 464 464;" xml:space="preserve">
<path style="fill:#FDBD40;" d="M464,408.014H0l56-128h352L464,408.014z"/>
<path style="fill:#5F79BA;" d="M48.928,376.014l28-64h310.144l28,64H48.928z"/>
<path style="fill:#FCF05A;" d="M232,344.014l-68.256-196.928c-11.839-36.608,8.24-75.881,44.848-87.72
	c7.555-2.443,15.471-3.577,23.408-3.352c38.459-1.089,70.519,29.205,71.608,67.664c0.225,7.937-0.909,15.853-3.352,23.408
	L232,344.014z"/>
<g>
	<path style="fill:#FDBD40;" d="M271.624,128.014c-3.945-0.005-7.296-2.885-7.896-6.784c-0.708-4.289-2.394-8.357-4.928-11.888
		c-11.193-14.801-32.265-17.727-47.066-6.534c-2.468,1.867-4.667,4.065-6.534,6.534c-2.534,3.531-4.22,7.599-4.928,11.888
		c-0.824,4.341-5.01,7.192-9.351,6.368c-4.116-0.781-6.933-4.606-6.457-8.768c1.088-6.759,3.725-13.174,7.704-18.744
		c16.323-21.999,47.39-26.599,69.388-10.276c3.911,2.902,7.374,6.365,10.276,10.276c3.979,5.57,6.616,11.985,7.704,18.744
		c0.67,4.365-2.324,8.447-6.688,9.12C272.442,128.003,272.033,128.025,271.624,128.014z"/>
	<circle style="fill:#FDBD40;" cx="232" cy="160.014" r="24"/>
	<path style="fill:#FDBD40;" d="M352,240.014c-4.418,0-8-3.582-8-8c0-13.255-10.745-24-24-24c-4.418,0-8-3.582-8-8s3.582-8,8-8
		c13.255,0,24-10.745,24-24c0-4.418,3.582-8,8-8s8,3.582,8,8c0,13.255,10.745,24,24,24c4.418,0,8,3.582,8,8s-3.582,8-8,8
		c-13.255,0-24,10.745-24,24C360,236.433,356.418,240.014,352,240.014z M344,200.014c3.029,2.278,5.722,4.971,8,8
		c2.278-3.029,4.971-5.722,8-8c-3.029-2.278-5.722-4.971-8-8C349.722,195.043,347.029,197.737,344,200.014z"/>
	<path style="fill:#FDBD40;" d="M96,160.014c-4.418,0-8-3.582-8-8c0-13.255-10.745-24-24-24c-4.418,0-8-3.582-8-8s3.582-8,8-8
		c13.255,0,24-10.745,24-24c0-4.418,3.582-8,8-8s8,3.582,8,8c0,13.255,10.745,24,24,24c4.418,0,8,3.582,8,8s-3.582,8-8,8
		c-13.255,0-24,10.745-24,24C104,156.433,100.418,160.014,96,160.014z M88,120.014c3.029,2.278,5.722,4.971,8,8
		c2.278-3.029,4.971-5.722,8-8c-3.029-2.278-5.722-4.971-8-8C93.722,115.043,91.029,117.737,88,120.014z"/>
</g>
<g>
</g>
<g>
</g>
<g>
</g>
<g>
</g>
<g>
</g>
<g>
</g>
<g>
</g>
<g>
</g>
<g>
</g>
<g>
</g>
<g>
</g>
<g>
</g>
<g>
</g>
<g>
</g>
<g>
</g>
</svg>
